HIERARCHY
ROOT Hips
{
	OFFSET 0.000000 0.000000 0.000000 
	CHANNELS 6 Xposition Yposition Zposition Zrotation Yrotation Xrotation
	JOINT LeftUpLeg
	{
		OFFSET 1.363060 -1.794630 0.839290 
		CHANNELS 3 Zrotation Yrotation Xrotation
		JOINT LeftLeg
		{
			OFFSET 2.448110 -6.726130 0.000000 
			CHANNELS 3 Zrotation Yrotation Xrotation
			JOINT LeftFoot
			{
				OFFSET 2.562200 -7.039590 0.000000 
				CHANNELS 3 Zrotation Yrotation Xrotation
				JOINT LeftToeBase
				{
					OFFSET 0.157640 -0.433110 2.322550 
					CHANNELS 3 Zrotation Yrotation Xrotation
					End Site
					{
						OFFSET 0.000000 0.000000 0.000000 
					}
				}
			}
		}
	}
	JOINT RightUpLeg
	{
		OFFSET -1.305520 -1.794630 0.839290 
		CHANNELS 3 Zrotation Yrotation Xrotation
		JOINT RightLeg
		{
			OFFSET -2.542530 -6.985550 0.000000 
			CHANNELS 3 Zrotation Yrotation Xrotation
			JOINT RightFoot
			{
				OFFSET -2.568260 -7.056230 0.000000 
				CHANNELS 3 Zrotation Yrotation Xrotation
				JOINT RightToeBase
				{
					OFFSET -0.164730 -0.452590 2.363150 
					CHANNELS 3 Zrotation Yrotation Xrotation
					End Site
					{
						OFFSET 0.000000 0.000000 0.000000 
					}
				}
			}
		}
	}
	JOINT Spine
	{
		OFFSET 0.028270 2.035590 -0.193380 
		CHANNELS 3 Zrotation Yrotation Xrotation
		JOINT Spine1
		{
			OFFSET 0.056720 2.048850 -0.042750 
			CHANNELS 3 Zrotation Yrotation Xrotation
			JOINT Neck1
			{
				OFFSET -0.054170 1.746240 0.172020 
				CHANNELS 3 Zrotation Yrotation Xrotation
				JOINT Head
				{
					OFFSET 0.104070 1.761360 -0.123970 
					CHANNELS 3 Zrotation Yrotation Xrotation
					End Site
					{
						OFFSET 0.000000 0.000000 0.000000 
					}
				}
			}
			JOINT LeftArm
			{
				OFFSET 3.362410 1.200890 -0.311210 
				CHANNELS 3 Zrotation Yrotation Xrotation
				JOINT LeftForeArm
				{
					OFFSET 4.983000 -0.000000 -0.000000 
					CHANNELS 3 Zrotation Yrotation Xrotation
					JOINT LeftHand
					{
						OFFSET 3.483560 -0.000000 -0.000000 
						CHANNELS 3 Zrotation Yrotation Xrotation
						JOINT LeftHandIndex1
						{
							OFFSET 0.715260 -0.000000 -0.000000 
							CHANNELS 3 Zrotation Yrotation Xrotation
							End Site
							{
								OFFSET 0.000000 0.000000 0.000000 
							}
						}
					}
				}
			}
			JOINT RightArm
			{
				OFFSET -3.136600 1.374050 -0.404650 
				CHANNELS 3 Zrotation Yrotation Xrotation
				JOINT RightForeArm
				{
					OFFSET -5.241900 -0.000000 -0.000000 
					CHANNELS 3 Zrotation Yrotation Xrotation
					JOINT RightHand
					{
						OFFSET -3.444170 -0.000000 -0.000000 
						CHANNELS 3 Zrotation Yrotation Xrotation
						JOINT RightHandIndex1
						{
							OFFSET -0.622530 -0.000000 -0.000000 
							CHANNELS 3 Zrotation Yrotation Xrotation
							End Site
							{
								OFFSET 0.000000 0.000000 0.000000 
							}
						}
					}
				}
			}
		}
	}
}
MOTION
Frames: 15
Frame Time: 0.041667
10.234701 17.861843 49.586966 -177.454698 -15.775002 177.741788 -15.845450 -26.505067 -2.696091 -2.096318 8.375222 23.998050 -1.057539 5.857415 0.852334 5.329400 -13.745400 -42.226900 26.925092 10.434016 -1.315320 2.244383 -7.477362 24.085969 6.799698 -24.909980 -18.277325 -0.659500 -5.194100 14.463100 1.896107 2.318487 9.776474 -5.924180 0.795864 -10.897594 6.830802 12.104919 13.036419 -0.351400 6.600600 5.138800 -88.351340 6.561778 34.732375 25.767313 -26.171324 -7.765274 1.690980 0.967507 13.961124 -7.125000 0.000000 0.000000 86.888834 -6.869928 47.344150 -21.797518 25.128360 -6.548548 1.093501 0.502017 10.235786 7.125000 0.000000 0.000000 
10.238941 17.871266 49.578838 -177.891053 -15.650451 178.082375 -16.123376 -26.227822 -2.805126 -2.171449 8.271378 23.680351 -1.095553 5.945952 0.968145 2.163000 -9.197600 -26.415400 26.456279 10.640709 -1.629672 2.199340 -7.584024 24.343503 6.749467 -24.749295 -18.400148 -0.578200 -4.869100 13.535700 1.741179 2.329921 9.627144 -5.608316 0.840812 -10.816194 6.957220 12.089071 13.251335 -0.299100 6.614100 5.197900 -88.319712 6.684842 34.956181 25.906075 -26.304516 -7.833239 1.679063 0.965717 13.531558 -7.125000 0.000000 0.000000 86.862029 -6.994542 47.626989 -21.726246 25.033778 -6.526859 1.120412 0.459425 10.909042 7.125000 0.000000 0.000000 
10.245656 17.873858 49.569768 -177.884397 -15.468430 178.245569 -16.021003 -26.058695 -2.950486 -2.192875 8.242362 23.576275 -1.229689 6.275341 1.058344 2.352800 -9.565200 -27.579700 26.480210 10.878555 -1.697585 2.215231 -7.601181 24.352736 6.752498 -24.837676 -18.673578 -0.572700 -4.846400 13.471000 1.853993 2.408336 9.527144 -5.469810 0.898233 -10.736512 7.141462 12.066368 13.389854 -0.217600 6.618900 5.235400 -88.323354 6.694372 34.990626 25.947603 -26.351348 -7.866764 1.677344 0.974079 13.181556 -7.125000 0.000000 0.000000 86.850399 -7.031283 47.765979 -21.639154 24.936863 -6.510784 1.122809 0.446032 11.394700 7.125000 0.000000 0.000000 
10.252488 17.875271 49.561170 -177.855438 -15.325944 178.341506 -15.918640 -26.012663 -2.960828 -2.222513 8.187792 23.424333 -1.250056 6.330035 1.098468 2.348700 -9.557500 -27.555200 26.539161 11.080944 -1.716283 2.230788 -7.617685 24.377926 6.736742 -24.913176 -19.056334 -0.561800 -4.800800 13.341200 1.978134 2.464459 9.517605 -5.342968 0.944605 -10.652068 7.300524 12.058378 13.455660 -0.139400 6.623900 5.260900 -88.343336 6.655316 35.003103 26.003768 -26.416313 -7.908894 1.674150 0.982721 12.871658 -7.125000 0.000000 0.000000 86.800362 -6.960134 47.932473 -21.563573 24.848792 -6.481572 1.126952 0.438922 11.659331 7.125000 0.000000 0.000000 
10.263796 17.883517 49.548213 -177.924597 -15.125365 178.693715 -15.793383 -25.907203 -3.227486 -2.240629 8.165486 23.338615 -1.234683 6.303371 1.023912 2.243300 -9.355500 -26.913800 26.472852 11.442208 -1.880730 2.274552 -7.612701 24.297034 6.728710 -25.002375 -19.478298 -0.520800 -4.625200 12.842700 2.067091 2.550242 9.407638 -5.122871 1.019684 -10.440187 7.302291 12.064769 13.467436 -0.129900 6.628500 5.276100 -88.349890 6.724160 35.289973 26.044701 -26.418804 -7.906954 1.623519 1.003562 13.317752 -7.125000 0.000000 0.000000 86.759545 -6.854169 47.961955 -21.585792 24.850806 -6.464704 1.147517 0.417726 11.652491 7.125000 0.000000 0.000000 
10.275693 17.902128 49.532428 -177.940760 -14.954556 179.420566 -15.437768 -25.796748 -3.893753 -2.264173 8.139956 23.193577 -1.265907 6.398368 1.132184 2.456100 -9.757700 -28.195700 26.407455 11.988247 -2.384302 2.314356 -7.640832 24.178820 6.828901 -25.216906 -19.328124 -0.448700 -4.297400 11.914900 2.194767 2.640905 9.085416 -4.884858 1.096482 -10.036707 7.150706 12.092356 13.474584 -0.181700 6.638400 5.299400 -88.364937 6.688417 35.498585 25.989598 -26.314417 -7.856383 1.598164 1.015800 13.619928 -7.125000 0.000000 0.000000 86.790762 -6.628135 47.275007 -21.781088 25.045715 -6.509942 1.159792 0.417983 10.545270 7.125000 0.000000 0.000000 
10.277342 17.902599 49.532311 -178.001530 -14.934899 179.450178 -15.477666 -25.787716 -3.877106 -2.278038 8.114347 23.126869 -1.224966 6.299343 1.172949 2.700400 -10.193500 -29.605700 26.366909 12.146385 -2.347384 2.315620 -7.642545 24.183329 6.789033 -25.105114 -19.332092 -0.457900 -4.340900 12.037800 2.227535 2.637390 9.079767 -4.803090 1.104773 -10.046212 7.151931 12.121869 13.496471 -0.173300 6.654000 5.312600 -88.425017 6.473198 35.481562 25.832937 -26.149804 -7.783052 1.607640 1.025405 13.461658 -7.125000 0.000000 0.000000 86.773647 -6.446513 46.983026 -21.820392 25.075054 -6.503543 1.169014 0.403301 10.529439 7.125000 0.000000 0.000000 
10.276753 17.901186 49.533489 -178.104116 -14.953030 179.442557 -15.587986 -25.810099 -3.799737 -2.288349 8.094590 23.084087 -1.153524 6.124077 1.171762 2.637300 -10.083400 -29.247200 26.264848 12.144307 -2.333512 2.304633 -7.650457 24.220652 6.754261 -24.986024 -19.291912 -0.463300 -4.365800 12.108200 2.172849 2.607926 9.095508 -4.754758 1.098211 -10.082632 7.288212 12.182095 13.423562 -0.119300 6.684500 5.278900 -88.442948 6.422695 35.698785 25.740107 -26.022876 -7.714034 1.561992 1.051656 13.978956 -7.125000 0.000000 0.000000 86.752413 -6.319141 47.091192 -21.762153 25.017044 -6.489983 1.165581 0.413681 10.430629 7.125000 0.000000 0.000000 
10.273337 17.900008 49.533606 -178.130177 -14.958199 179.372797 -15.657969 -25.756665 -3.736064 -2.292422 8.092000 23.078084 -1.207924 6.252764 1.145624 2.735100 -10.253400 -29.801300 26.210784 11.938747 -2.371046 2.281700 -7.672583 24.303393 6.736495 -24.919744 -19.246914 -0.423600 -4.177300 11.575900 2.123562 2.587725 9.125826 -4.781683 1.085474 -10.106877 7.183922 12.198863 13.274060 -0.170600 6.680700 5.238300 -88.440932 6.465991 35.941973 25.753179 -26.007150 -7.691404 1.523528 1.059441 14.438895 -7.125000 0.000000 0.000000 86.768629 -6.267028 47.285004 -21.694560 24.946882 -6.467834 1.163877 0.428144 9.935253 7.125000 0.000000 0.000000 
10.270745 17.900243 49.534078 -178.100237 -14.960135 179.366042 -15.659668 -25.819487 -3.696202 -2.295574 8.091943 23.066393 -1.337880 6.563534 1.089460 2.890200 -10.515200 -30.661600 26.208782 11.787215 -2.473105 2.270261 -7.695596 24.364098 6.713512 -24.869710 -19.285118 -0.436600 -4.239900 11.752600 2.119888 2.577007 9.101041 -4.832627 1.072699 -10.104825 7.091368 12.151025 13.145140 -0.219700 6.646200 5.200000 -88.462456 6.443232 36.027106 25.801305 -26.052089 -7.704788 1.531216 1.041148 14.379598 -7.125000 0.000000 0.000000 86.780391 -6.267995 47.315530 -21.677454 24.926101 -6.460833 1.163940 0.432103 9.758657 7.125000 0.000000 0.000000 
10.271334 17.898830 49.535020 -178.007157 -14.947961 179.350431 -15.584868 -25.942826 -3.640196 -2.294609 8.086771 23.054589 -1.383882 6.673270 1.097028 2.842300 -10.435300 -30.398100 26.308150 11.773961 -2.511870 2.270054 -7.712600 24.403706 6.676047 -24.821420 -19.416421 -0.483600 -4.459500 12.373200 2.154455 2.586950 9.066796 -4.892580 1.070763 -10.117281 7.255751 12.130833 13.027785 -0.166000 6.634900 5.139600 -88.462553 6.411081 36.183826 25.866700 -26.117059 -7.730041 1.533670 1.026095 14.275381 -7.125000 0.000000 0.000000 86.777489 -6.248471 47.281548 -21.717355 24.972761 -6.480207 1.160395 0.439262 9.564743 7.125000 0.000000 0.000000 
10.272748 17.896121 49.534666 -177.986725 -14.925059 179.313571 -15.577496 -25.928660 -3.611898 -2.291904 8.087276 23.066686 -1.350214 6.592486 1.088215 2.860500 -10.465800 -30.498600 26.337774 11.799280 -2.486190 2.268926 -7.721054 24.431835 6.684005 -24.883965 -19.535584 -0.519800 -4.620500 12.829300 2.192583 2.586476 9.080177 -4.887536 1.072657 -10.145290 7.403659 12.146521 13.003392 -0.101300 6.644900 5.124500 -88.499067 6.352889 36.263193 25.898092 -26.160294 -7.758229 1.524818 1.035628 14.265671 -7.125000 0.000000 0.000000 86.739530 -6.177987 47.279660 -21.758113 25.024363 -6.501381 1.155783 0.449722 9.229011 7.125000 0.000000 0.000000 
10.274515 17.894471 49.533842 -178.089259 -14.924860 179.331018 -15.674197 -25.874722 -3.620479 -2.292251 8.093557 23.085551 -1.312654 6.501505 0.991563 2.926600 -10.575300 -30.860500 26.233033 11.830506 -2.485787 2.260351 -7.727146 24.447508 6.733346 -24.979720 -19.452270 -0.519600 -4.620000 12.827700 2.167303 2.544661 9.087165 -4.805752 1.059687 -10.160524 7.284803 12.171402 13.106261 -0.132200 6.659100 5.187900 -88.525937 6.301346 36.284916 25.910982 -26.196694 -7.793254 1.522695 1.051843 14.294759 -7.125000 0.000000 0.000000 86.701775 -6.098615 47.259384 -21.779887 25.053359 -6.514380 1.154097 0.448657 9.301794 7.125000 0.000000 0.000000 
10.276046 17.893176 49.533253 -178.133949 -14.954546 179.310693 -15.695595 -25.712144 -3.672668 -2.293925 8.091105 23.081819 -1.254324 6.363038 1.079309 3.001200 -10.697000 -31.264600 26.203099 11.796713 -2.469798 2.247336 -7.734006 24.474805 6.744614 -24.966460 -19.313820 -0.464700 -4.372300 12.126600 2.148577 2.510302 9.095446 -4.754783 1.044737 -10.158533 6.949022 12.189248 13.205204 -0.256100 6.663100 5.262800 -88.500694 6.290420 36.444565 25.959295 -26.261484 -7.834237 1.532393 1.047597 14.247543 -7.125000 0.000000 0.000000 86.701847 -6.025974 47.244208 -21.777470 25.058128 -6.521230 1.151023 0.448377 9.496012 7.125000 0.000000 0.000000 
10.274750 17.892705 49.531486 -178.169901 -14.987007 179.274098 -15.725677 -25.602624 -3.673688 -2.298536 8.082070 23.062425 -1.215730 6.270355 1.152566 2.995900 -10.688400 -31.236100 26.184414 11.780390 -2.419902 2.244469 -7.734554 24.502760 6.699433 -24.876126 -19.429838 -0.447100 -4.290100 11.894300 2.122524 2.505764 9.139479 -4.750281 1.045170 -10.119401 6.799259 12.206791 13.082362 -0.323600 6.659000 5.226000 -88.465262 6.259770 36.731399 26.012334 -26.321208 -7.867278 1.539041 1.037961 14.121285 -7.125000 0.000000 0.000000 86.693543 -5.988468 47.297597 -21.796447 25.084095 -6.534969 1.148236 0.451345 9.495941 7.125000 0.000000 0.000000 
